<svg fill="#000000" xmlns="http://www.w3.org/2000/svg" viewBox="0 0 64 64" width="64px" height="64px"><path d="M 3 10 C 1.347656 10 0 11.347656 0 13 L 0 51 C 0 52.652344 1.347656 54 3 54 L 61 54 C 62.652344 54 64 52.652344 64 51 L 64 13 C 64 11.347656 62.652344 10 61 10 Z M 3 12 L 61 12 C 61.550781 12 62 12.449219 62 13 L 62 46 C 61.449219 46 61 46.449219 61 47 L 61 49 C 61 49.550781 61.449219 50 62 50 L 62 51 C 62 51.550781 61.550781 52 61 52 L 3 52 C 2.449219 52 2 51.550781 2 51 L 2 50 C 2.550781 50 3 49.550781 3 49 L 3 47 C 3 46.449219 2.550781 46 2 46 L 2 13 C 2 12.449219 2.449219 12 3 12 Z M 12.390625 23.96875 C 11.996094 23.96875 11.636719 24.203125 11.476563 24.5625 L 6.078125 36.5625 C 5.847656 37.0625 6.074219 37.65625 6.578125 37.882813 C 7.078125 38.109375 7.671875 37.886719 7.898438 37.378906 L 8.535156 35.96875 L 16.238281 35.96875 L 16.875 37.378906 C 17.042969 37.75 17.40625 37.96875 17.789063 37.96875 C 17.925781 37.96875 18.066406 37.941406 18.199219 37.882813 C 18.703125 37.65625 18.929688 37.0625 18.703125 36.5625 L 13.300781 24.5625 C 13.140625 24.203125 12.78125 23.96875 12.390625 23.96875 Z M 32.9375 24 C 32.617188 24.019531 32.316406 24.195313 32.140625 24.484375 L 27 33.058594 L 21.859375 24.484375 C 21.625 24.097656 21.167969 23.914063 20.734375 24.035156 C 20.300781 24.15625 20 24.550781 20 25 L 20 37 C 20 37.550781 20.449219 38 21 38 C 21.550781 38 22 37.550781 22 37 L 22 28.609375 L 26.140625 35.515625 C 26.503906 36.117188 27.496094 36.117188 27.859375 35.515625 L 32 28.609375 L 32 37 C 32 37.550781 32.449219 38 33 38 C 33.550781 38 34 37.550781 34 37 L 34 25 C 34 24.550781 33.699219 24.15625 33.265625 24.035156 C 33.160156 24.003906 33.046875 23.992188 32.9375 24 Z M 37 24 C 36.449219 24 36 24.449219 36 25 L 36 37 C 36 37.550781 36.449219 38 37 38 L 46 38 C 46.144531 38 46.277344 37.96875 46.402344 37.910156 C 46.433594 37.898438 46.457031 37.871094 46.484375 37.855469 C 46.578125 37.800781 46.664063 37.742188 46.734375 37.664063 C 46.746094 37.652344 46.757813 37.652344 46.765625 37.640625 L 51 32.5625 L 55.234375 37.640625 C 55.429688 37.878906 55.714844 38 56 38 C 56.226563 38 56.453125 37.921875 56.640625 37.765625 C 57.066406 37.414063 57.121094 36.785156 56.765625 36.359375 L 52.300781 31 L 56.769531 25.640625 C 57.125 25.214844 57.066406 24.585938 56.640625 24.234375 C 56.214844 23.878906 55.585938 23.933594 55.234375 24.359375 L 51 29.4375 L 46.765625 24.359375 C 46.578125 24.132813 46.296875 24 46 24 Z M 38 26 L 45.53125 26 L 49.699219 31 L 45.53125 36 L 38 36 L 38 32 L 42 32 C 42.550781 32 43 31.550781 43 31 C 43 30.449219 42.550781 30 42 30 L 38 30 Z M 12.390625 27.40625 L 15.34375 33.96875 L 9.4375 33.96875 Z M 7 46 C 6.449219 46 6 46.449219 6 47 L 6 49 C 6 49.550781 6.449219 50 7 50 C 7.550781 50 8 49.550781 8 49 L 8 47 C 8 46.449219 7.550781 46 7 46 Z M 12 46 C 11.449219 46 11 46.449219 11 47 L 11 49 C 11 49.550781 11.449219 50 12 50 C 12.550781 50 13 49.550781 13 49 L 13 47 C 13 46.449219 12.550781 46 12 46 Z M 17 46 C 16.449219 46 16 46.449219 16 47 L 16 49 C 16 49.550781 16.449219 50 17 50 C 17.550781 50 18 49.550781 18 49 L 18 47 C 18 46.449219 17.550781 46 17 46 Z M 22 46 C 21.449219 46 21 46.449219 21 47 L 21 49 C 21 49.550781 21.449219 50 22 50 C 22.550781 50 23 49.550781 23 49 L 23 47 C 23 46.449219 22.550781 46 22 46 Z M 27 46 C 26.449219 46 26 46.449219 26 47 L 26 49 C 26 49.550781 26.449219 50 27 50 C 27.550781 50 28 49.550781 28 49 L 28 47 C 28 46.449219 27.550781 46 27 46 Z M 32 46 C 31.449219 46 31 46.449219 31 47 L 31 49 C 31 49.550781 31.449219 50 32 50 C 32.550781 50 33 49.550781 33 49 L 33 47 C 33 46.449219 32.550781 46 32 46 Z M 37 46 C 36.449219 46 36 46.449219 36 47 L 36 49 C 36 49.550781 36.449219 50 37 50 C 37.550781 50 38 49.550781 38 49 L 38 47 C 38 46.449219 37.550781 46 37 46 Z M 42 46 C 41.449219 46 41 46.449219 41 47 L 41 49 C 41 49.550781 41.449219 50 42 50 C 42.550781 50 43 49.550781 43 49 L 43 47 C 43 46.449219 42.550781 46 42 46 Z M 47 46 C 46.449219 46 46 46.449219 46 47 L 46 49 C 46 49.550781 46.449219 50 47 50 C 47.550781 50 48 49.550781 48 49 L 48 47 C 48 46.449219 47.550781 46 47 46 Z M 52 46 C 51.449219 46 51 46.449219 51 47 L 51 49 C 51 49.550781 51.449219 50 52 50 C 52.550781 50 53 49.550781 53 49 L 53 47 C 53 46.449219 52.550781 46 52 46 Z M 57 46 C 56.449219 46 56 46.449219 56 47 L 56 49 C 56 49.550781 56.449219 50 57 50 C 57.550781 50 58 49.550781 58 49 L 58 47 C 58 46.449219 57.550781 46 57 46 Z"/></svg>