<svg xmlns="http://www.w3.org/2000/svg" viewBox="0 0 128 128" width="64px" height="64px"><path fill="#fff" d="M109,104H19c-5.5,0-10-4.5-10-10V34c0-5.5,4.5-10,10-10h90c5.5,0,10,4.5,10,10v60C119,99.5,114.5,104,109,104z"/><path fill="#9eb9d3" d="M19 56.2c2.7.2 5.4-.4 8 .7 3.2 1.3 5 4.4 4.6 8-.4 3.4-3 6.3-6.4 6.6-2 .2-4.1 0-6.2 0C19 66.5 19 61.4 19 56.2zM22 69c2.3.1 4.5-.1 5.7-2.3 1.1-1.9 1.1-3.9-.2-5.8-1.3-1.9-3.4-2.1-5.5-2C22 62.3 22 65.6 22 69zM104.2 65.2c1.6 2.1 3.1 4.2 4.8 6.4-1.3 0-2.4 0-3.5 0-.2 0-.5-.3-.6-.6-1.1-1.6-2.2-3.3-3.3-5-.2-.2-.3-.5-.5-.7-.1 0-.1 0-.2.1 0 2 0 4 0 6.1-1.1 0-2 0-3 0 0-5.1 0-10.2 0-15.4 2.1.1 4.2 0 6.3.3 2.2.3 3.4 1.8 3.5 4 .1 2.4-.8 3.8-3.1 4.6C104.5 65.1 104.4 65.1 104.2 65.2zM100.8 63.3c1.3 0 2.6.2 3.4-1 .5-.8.6-1.7 0-2.5-.8-1.1-2.1-1-3.4-1C100.8 60.2 100.8 61.7 100.8 63.3zM91.5 58.8c0 1.2 0 2.3 0 3.4 1.7 0 3.4 0 5.2 0 0 .9 0 1.8 0 2.7-1.7 0-3.4 0-5.2 0 0 1.4 0 2.7 0 4.1 1.8 0 3.6 0 5.4 0 0 .9 0 1.7 0 2.6-2.8 0-5.6 0-8.4 0 0-5.1 0-10.1 0-15.3 2.8 0 5.6 0 8.4 0 0 .8 0 1.6 0 2.5C95.1 58.8 93.3 58.8 91.5 58.8zM45.7 57.7c-.5.7-1 1.4-1.6 2-.3-.2-.6-.5-.9-.7-.7-.5-1.5-.6-2.4-.4-.7.2-1.3.6-1.4 1.4-.1.8.4 1.2 1.1 1.5.9.4 1.9.7 2.8 1.2 2.4 1.1 3.2 2.5 2.8 4.9-.3 2.3-1.8 3.9-4.1 4.3-2.7.5-5.2-.6-6.5-2.9.6-.6 1.2-1.2 1.9-1.8.7 1.1 1.5 1.9 2.8 2 .6 0 1.3-.1 1.8-.3 1.4-.7 1.4-2.6 0-3.4-.5-.3-1.1-.5-1.6-.7-.5-.2-.9-.3-1.4-.6-2.1-1-2.9-2.2-2.7-4.3.2-1.9 1.6-3.4 3.6-3.8C42.1 55.7 43.9 56.2 45.7 57.7zM73.2 56.2c1 0 1.9 0 2.8 0 .2 0 .5.3.6.6 1.2 2.9 2.3 5.7 3.4 8.6.1.3.2.5.4.9.2-.4.3-.7.4-.9 1.1-2.8 2.3-5.7 3.4-8.5.2-.5.4-.8 1-.7.8.1 1.6 0 2.6 0-.5 1.3-1 2.4-1.5 3.6-1.6 3.9-3.3 7.7-4.9 11.6-.2.6-.6.5-1.1.5-.4 0-.8.1-1.1-.5-2-4.9-4-9.8-6.1-14.7C73.3 56.7 73.2 56.5 73.2 56.2zM58.6 67.7c0 1 0 2 0 3 0 .2-.3.5-.5.6-3.1 1.2-6 .9-8.6-1.2-2.6-2.2-3.4-5.2-2.5-8.4 1-3.2 3.3-5.1 6.6-5.7 1.5-.3 3-.1 4.4.6.3.1.5.6.6.9.1.9 0 1.8 0 3-1.4-1.4-3-2.1-4.8-1.7-1.2.2-2.1.8-2.9 1.8-1.6 1.9-1.5 5.1.1 6.9 1 1.1 2.2 1.7 3.7 1.7C55.9 69.2 56.1 69.2 58.6 67.7zM32.2 56.3c1 0 1.9 0 2.9 0 0 5.1 0 10.2 0 15.3-1 0-1.9 0-2.9 0C32.2 66.5 32.2 61.4 32.2 56.3z"/><g><path fill="#9eb9d3" d="M66.8 56.5A7.8 7.8 0 1 0 66.8 72.1A7.8 7.8 0 1 0 66.8 56.5Z"/></g><g><path fill="#444b54" d="M109,107H19c-7.2,0-13-5.8-13-13V34c0-7.2,5.8-13,13-13h90c7.2,0,13,5.8,13,13v60C122,101.2,116.2,107,109,107z M19,27c-3.9,0-7,3.1-7,7v60c0,3.9,3.1,7,7,7h90c3.9,0,7-3.1,7-7V34c0-3.9-3.1-7-7-7H19z"/></g><g><path fill="#444b54" d="M9,52c-0.8,0-1.6-0.3-2.1-0.9C6.3,50.6,6,49.8,6,49c0-0.2,0-0.4,0.1-0.6c0-0.2,0.1-0.4,0.2-0.6c0.1-0.2,0.2-0.3,0.3-0.5c0.1-0.2,0.2-0.3,0.4-0.4s0.3-0.3,0.4-0.4c0.2-0.1,0.3-0.2,0.5-0.3c0.2-0.1,0.4-0.1,0.6-0.2c0.4-0.1,0.8-0.1,1.2,0c0.2,0,0.4,0.1,0.6,0.2c0.2,0.1,0.4,0.2,0.5,0.3c0.2,0.1,0.3,0.2,0.4,0.4c0.1,0.1,0.3,0.3,0.4,0.4c0.1,0.2,0.2,0.3,0.3,0.5c0.1,0.2,0.1,0.4,0.2,0.6c0,0.2,0.1,0.4,0.1,0.6c0,0.8-0.3,1.6-0.9,2.1c-0.1,0.1-0.3,0.3-0.4,0.4c-0.2,0.1-0.3,0.2-0.5,0.3c-0.2,0.1-0.4,0.1-0.6,0.2C9.4,52,9.2,52,9,52z"/></g></svg>